<?xml version="1.0" standalone="no"?>
<!DOCTYPE svg PUBLIC "-//W3C//DTD SVG 20010904//EN"
 "http://www.w3.org/TR/2001/REC-SVG-20010904/DTD/svg10.dtd">
<svg version="1.0" xmlns="http://www.w3.org/2000/svg"
 width="936.000000pt" height="936.000000pt" viewBox="0 0 936.000000 936.000000"
 preserveAspectRatio="xMidYMid meet">
<metadata>
Created by potrace 1.14, written by Peter Selinger 2001-2017
</metadata>
<g transform="translate(0.000000,936.000000) scale(0.100000,-0.100000)"
fill="#000000" stroke="none">
<path d="M3137 9314 c-1 -1 -20 -4 -42 -6 -103 -12 -204 -89 -251 -191 l-29
-62 -2 -1220 c-1 -671 -2 -1236 -2 -1256 l-1 -36 -1237 -1 c-1096 -1 -1288 -3
-1288 -11 0 -2 -8 -4 -18 -6 -31 -6 -101 -52 -135 -90 -19 -20 -46 -62 -60
-93 l-27 -57 -2 -1442 c-1 -1092 1 -1442 10 -1440 7 1 16 7 22 13 5 6 75 63
155 125 80 62 147 116 150 119 3 3 23 19 45 36 47 35 82 63 106 85 9 9 23 21
32 25 8 5 32 23 53 40 22 18 75 60 119 95 44 35 82 66 85 69 3 3 21 17 40 30
19 14 45 34 56 45 12 11 34 29 49 40 16 11 38 28 49 37 33 28 158 127 236 188
25 19 54 42 65 51 17 15 81 66 231 184 21 17 42 35 48 41 6 6 18 15 27 20 9 5
36 25 60 46 24 20 116 93 204 162 88 69 167 132 175 139 8 8 58 47 110 88 119
93 126 98 280 222 339 273 402 318 418 305 9 -8 35 -29 57 -48 23 -19 63 -54
90 -77 28 -23 60 -50 71 -60 12 -10 43 -36 70 -58 26 -22 58 -50 71 -62 13
-11 43 -36 66 -55 23 -18 57 -47 77 -64 19 -17 46 -39 59 -50 13 -10 34 -29
47 -41 13 -13 25 -23 28 -23 3 0 18 -12 34 -27 15 -16 45 -41 66 -58 21 -16
54 -44 74 -62 34 -30 36 -31 61 -15 14 9 28 19 31 23 3 3 30 22 60 42 56 38
182 127 211 150 8 6 23 17 31 22 52 33 254 180 256 187 2 4 8 8 14 8 6 0 30
16 54 35 23 19 45 35 49 35 3 0 12 6 19 13 8 6 100 73 206 147 172 121 245
173 275 198 6 4 25 17 43 27 17 11 32 23 32 27 0 4 5 8 10 8 6 0 40 22 75 50
35 27 67 50 71 50 3 0 19 10 34 23 15 12 37 29 50 37 13 8 35 25 50 38 15 12
31 22 34 22 3 0 14 7 23 15 14 11 195 140 343 245 8 6 37 26 64 45 41 29 52
33 65 22 51 -39 158 -132 169 -145 6 -9 12 -12 12 -8 0 4 6 1 13 -6 8 -7 40
-35 72 -63 33 -27 91 -77 130 -110 38 -33 103 -87 143 -120 39 -32 72 -63 72
-67 0 -4 5 -8 10 -8 6 0 21 -10 34 -22 13 -13 40 -36 60 -53 21 -16 43 -35 49
-40 7 -6 39 -33 72 -60 33 -28 65 -54 71 -60 29 -25 74 -64 124 -105 30 -25
57 -47 60 -50 3 -3 48 -41 100 -85 52 -44 104 -87 115 -96 11 -10 43 -37 72
-61 102 -86 147 -123 163 -138 14 -13 44 -38 145 -121 11 -10 41 -34 66 -55
25 -22 67 -58 95 -81 27 -23 60 -51 74 -63 14 -12 67 -56 119 -98 51 -43 106
-88 121 -102 15 -14 46 -41 70 -60 24 -19 53 -44 64 -55 12 -11 44 -38 71 -60
60 -48 238 -198 319 -269 32 -28 62 -53 67 -54 5 -2 22 -16 37 -30 15 -15 47
-43 70 -62 47 -38 73 -59 112 -93 14 -12 50 -42 80 -67 47 -39 89 -74 134
-115 6 -5 34 -28 61 -50 28 -21 52 -42 55 -45 25 -27 130 -110 131 -103 1 4 2
64 3 133 2 70 5 131 9 137 4 7 4 14 0 16 -7 5 -9 183 -3 197 1 3 1 10 0 15 -9
31 -4 455 5 455 7 0 7 3 0 8 -12 8 -14 162 -2 162 4 0 5 6 0 13 -11 19 -10
387 2 387 7 0 7 3 0 8 -12 9 -14 232 -1 232 5 0 4 6 -1 13 -10 14 -10 397 0
414 4 7 4 14 0 16 -7 5 -9 183 -3 197 1 3 1 10 0 15 -2 6 -4 92 -4 191 l-2
182 -32 65 c-48 96 -140 168 -237 183 -16 3 -585 6 -1262 6 l-1233 1 -1 21
c-1 12 -2 572 -3 1246 -2 1268 -3 1299 -42 1331 -8 6 -14 16 -14 22 0 24 -103
107 -158 128 l-57 22 -1548 1 c-852 0 -1549 0 -1550 0z m443 -639 c96 -5 120
-8 220 -19 60 -8 95 -13 95 -16 0 -1 14 -4 30 -5 76 -9 261 -66 370 -114 33
-15 75 -34 93 -42 17 -7 32 -17 32 -21 0 -5 5 -8 11 -8 24 0 154 -96 227 -168
88 -87 181 -223 174 -254 -1 -5 3 -8 8 -8 6 0 10 -8 10 -18 0 -10 3 -22 8 -26
4 -4 7 -11 7 -14 1 -4 8 -29 18 -57 18 -54 47 -175 52 -215 2 -14 6 -47 10
-75 14 -101 16 -133 19 -267 3 -131 -4 -171 -19 -111 -9 36 -95 214 -111 231
-8 7 -14 17 -14 22 0 8 -48 85 -87 140 -104 145 -317 347 -433 411 -14 8 -27
17 -30 20 -18 23 -249 129 -325 150 -26 7 -28 7 -12 -5 122 -93 366 -340 505
-512 90 -110 81 -99 122 -159 18 -27 36 -52 39 -55 18 -15 119 -194 165 -292
69 -144 112 -278 132 -408 9 -59 13 -242 6 -255 -3 -5 -7 -23 -8 -40 -3 -58
-4 -65 -11 -65 -7 0 -53 166 -55 198 -1 6 -5 12 -10 12 -4 0 -8 7 -8 16 0 22
-67 161 -97 200 -13 17 -23 33 -23 37 0 11 -96 106 -143 141 -26 19 -62 42
-80 50 -83 37 -205 86 -213 86 -18 0 -188 72 -289 122 -63 32 -156 98 -190
134 -76 83 -101 118 -137 194 -44 92 -56 123 -63 165 -4 22 -11 45 -14 50 -4
6 -8 23 -9 38 -1 16 -5 34 -9 40 -4 7 -8 18 -9 27 -2 21 -10 55 -29 124 -8 33
-17 67 -19 75 -8 41 -20 77 -29 89 -5 6 -7 12 -3 12 3 0 -3 21 -13 48 -26 68
-31 81 -30 88 0 4 -3 10 -8 13 -4 3 -18 26 -30 51 -21 46 -93 151 -93 138 0
-4 -12 5 -27 20 -16 15 -50 38 -76 51 -27 13 -47 25 -45 26 2 2 55 7 118 10
63 3 115 7 116 8 3 3 99 -1 214 -8z m2590 -954 l35 -2 -35 -15 c-62 -26 -138
-136 -166 -239 -41 -152 -62 -235 -59 -235 7 0 -46 -135 -56 -141 -6 -3 -10
-10 -9 -14 8 -26 -120 -144 -182 -169 -16 -6 -28 -14 -28 -19 0 -4 -4 -6 -8
-3 -5 3 -19 -1 -33 -7 -13 -7 -53 -24 -89 -37 -36 -13 -76 -30 -90 -37 -14 -7
-29 -13 -34 -13 -10 0 -85 -57 -109 -85 -38 -42 -88 -139 -111 -218 -14 -45
-25 -77 -27 -72 -12 62 -11 182 1 224 5 17 7 31 5 31 -2 0 5 25 15 55 10 30
17 55 15 55 -2 0 18 44 46 97 46 89 127 213 178 273 101 119 128 146 256 265
55 51 49 50 -75 -8 -135 -64 -240 -151 -340 -282 -55 -73 -130 -207 -130 -233
0 -6 -4 -13 -9 -16 -9 -6 -7 164 3 229 17 111 57 246 83 276 7 8 13 20 13 26
0 19 125 139 179 172 54 33 161 83 161 76 0 -2 17 3 37 11 20 9 46 18 57 20
12 2 32 6 46 9 57 12 78 15 130 21 30 3 56 6 57 8 2 2 218 0 273 -3z"/>
<path d="M5930 5654 c0 -3 14 -51 31 -106 17 -54 32 -105 33 -111 2 -7 6 -19
9 -27 3 -8 15 -49 27 -90 11 -41 24 -82 27 -90 6 -16 9 -23 17 -55 6 -21 30
-103 66 -220 12 -38 23 -77 25 -85 2 -8 4 -16 5 -17 2 -2 4 -7 5 -13 1 -5 3
-11 5 -12 1 -2 3 -10 5 -19 6 -30 47 -164 61 -196 8 -18 10 -33 6 -33 -7 0
-177 59 -242 83 -8 3 -69 24 -135 47 -66 23 -129 45 -140 50 -11 5 -38 14 -60
21 -22 6 -46 16 -52 22 -7 5 -13 7 -13 4 0 -3 -35 8 -77 25 -43 17 -88 32
-101 33 -21 3 -21 2 8 -33 16 -20 30 -42 30 -49 0 -7 4 -13 8 -13 4 0 23 -25
41 -55 18 -30 37 -55 42 -55 5 0 9 -5 9 -12 0 -6 11 -25 23 -42 25 -33 98
-138 204 -294 42 -62 61 -98 55 -105 -5 -7 -39 -91 -76 -187 -37 -96 -72 -184
-77 -195 -8 -18 -30 -72 -34 -85 -1 -3 -5 -14 -10 -25 -45 -111 -85 -218 -85
-230 0 -8 -4 -15 -9 -15 -5 0 -13 -15 -16 -32 -4 -18 -11 -37 -15 -43 -5 -5
-10 -19 -12 -30 -1 -11 -6 -23 -11 -26 -4 -3 -10 -16 -12 -29 -3 -13 -14 -43
-25 -66 -11 -24 -25 -61 -32 -83 -7 -23 -17 -41 -21 -41 -5 0 -6 -4 -2 -9 3
-5 1 -12 -5 -16 -5 -3 -10 -15 -10 -26 0 -10 -4 -27 -10 -37 -19 -33 -80 -191
-80 -206 0 -9 -4 -16 -9 -16 -5 0 -11 -15 -15 -32 -6 -33 -13 -26 -1182 1147
-676 679 -1173 1169 -1169 1155 5 -14 12 -38 16 -55 25 -98 41 -152 48 -170 5
-11 14 -42 21 -70 12 -47 20 -76 55 -197 9 -29 18 -63 20 -75 3 -12 10 -35 16
-50 6 -16 10 -29 10 -30 -1 -3 2 -12 18 -68 7 -22 14 -47 15 -55 2 -8 6 -22 9
-30 3 -8 9 -28 13 -45 10 -41 11 -45 14 -47 1 -3 4 -12 14 -53 2 -11 16 -60
31 -110 32 -106 45 -153 50 -180 2 -11 13 -49 24 -85 12 -36 21 -66 21 -67 0
-9 -19 1 -47 25 -17 15 -44 36 -59 47 -34 25 -125 96 -144 113 -8 7 -58 45
-110 84 -52 39 -100 76 -106 82 -6 6 -22 18 -34 26 -12 8 -28 20 -34 25 -6 6
-37 30 -69 54 l-57 43 -53 -22 c-28 -12 -74 -32 -102 -45 -27 -13 -85 -40
-129 -60 -71 -33 -123 -56 -136 -60 -13 -4 -66 -30 -70 -35 -3 -3 -10 -6 -15
-7 -6 -1 -42 -16 -80 -34 -39 -18 -72 -34 -75 -34 -3 -1 -25 -11 -50 -22 -41
-19 -222 -101 -310 -141 -42 -19 -39 -18 -67 -27 -13 -4 -23 -11 -23 -16 0 -5
-3 -8 -7 -7 -9 1 -25 -5 -127 -52 -39 -17 -84 -37 -100 -45 -17 -7 -75 -34
-130 -59 -54 -25 -104 -46 -111 -46 -7 0 -18 -7 -25 -15 -7 -8 -19 -15 -26
-15 -15 0 -94 -39 -94 -47 0 -2 21 -2 48 1 47 6 107 12 212 22 70 6 134 13
185 18 22 2 69 7 105 10 79 7 131 13 189 21 25 3 43 3 40 1 -9 -9 -550 -218
-566 -219 -7 0 -13 -5 -13 -10 0 -6 -3 -8 -6 -4 -4 3 -23 -2 -43 -12 -20 -11
-40 -19 -44 -19 -4 0 -31 -9 -60 -21 -29 -11 -65 -26 -82 -32 -16 -7 -32 -13
-35 -13 -3 -1 -61 -23 -130 -50 -278 -107 -427 -164 -474 -182 -44 -16 -47
-19 -30 -31 40 -29 103 -32 614 -33 289 0 530 0 535 0 6 0 98 0 205 0 107 -1
211 -2 230 -2 19 0 40 1 45 1 15 2 394 0 438 -2 21 -1 40 0 42 3 2 3 98 3 215
0 116 -3 220 -2 231 2 17 7 19 2 19 -55 1 -34 2 -602 3 -1262 l2 -1200 26 -55
c49 -106 151 -183 256 -195 85 -10 134 -11 139 -3 3 5 10 5 17 1 15 -9 97 -10
97 0 0 5 5 5 12 1 16 -10 258 -11 258 -1 0 5 5 5 11 1 15 -9 149 -11 149 -2 0
4 8 4 17 1 9 -4 42 -6 72 -5 72 2 86 2 146 -1 28 -1 60 1 73 5 12 4 22 4 22 0
0 -9 154 -7 169 2 6 4 11 3 11 -1 0 -10 83 -9 99 1 6 4 11 4 11 -1 0 -9 103
-8 119 1 6 4 11 3 11 -1 0 -10 83 -9 99 1 6 4 11 4 11 -1 0 -4 55 -7 122 -6
68 2 133 3 146 3 12 0 47 0 77 0 30 0 66 0 80 0 14 0 50 0 80 0 30 0 65 0 78
0 12 0 45 -1 72 -3 28 -1 60 1 73 5 12 4 22 4 22 0 0 -9 154 -7 169 2 6 4 11
3 11 -1 0 -10 83 -9 99 1 6 4 11 4 11 -1 0 -9 102 -9 117 0 6 4 13 4 17 0 9
-9 96 -9 96 0 0 5 5 5 11 1 13 -8 249 -12 249 -4 0 3 20 5 43 6 24 0 52 4 63
9 10 5 21 9 24 10 50 17 112 68 149 122 58 85 54 5 56 1368 l1 1250 235 2
c129 1 239 3 244 3 6 0 98 0 205 0 107 -1 211 -2 230 -2 19 0 40 1 45 1 6 1
98 1 205 1 107 -1 211 -2 230 -2 19 0 40 1 45 1 6 1 98 1 205 1 107 -1 211 -2
230 -2 19 0 40 1 45 1 6 1 98 1 205 1 107 -1 211 -2 230 -2 19 0 38 1 43 2 4
1 31 2 60 2 28 0 58 5 65 10 6 6 12 7 12 3 0 -4 7 -1 17 6 9 8 18 13 20 11 14
-10 143 96 143 118 0 4 -19 22 -42 40 -24 19 -44 38 -46 42 -2 4 -8 8 -13 8
-5 0 -23 13 -39 30 -16 17 -34 30 -39 30 -5 0 -11 3 -13 8 -1 4 -28 27 -58 52
-30 25 -56 48 -58 53 -2 4 -10 7 -17 7 -7 0 -15 4 -17 8 -1 4 -50 46 -108 92
-58 46 -107 87 -110 90 -3 3 -48 39 -100 80 -52 41 -97 77 -100 80 -3 3 -52
44 -110 90 -58 46 -106 88 -108 92 -2 4 -8 8 -13 8 -6 0 -21 10 -34 23 -29 27
-62 54 -105 87 -18 14 -38 30 -44 35 -6 6 -31 26 -56 45 -25 19 -47 37 -50 41
-3 3 -41 35 -85 70 -44 35 -86 68 -93 74 -7 5 -18 15 -25 20 -7 6 -37 30 -67
55 -74 60 -76 62 -145 117 -33 27 -69 56 -80 65 -11 9 -58 47 -105 84 -47 38
-86 72 -88 76 -2 4 -10 8 -17 8 -7 0 -15 4 -17 9 -3 9 -58 56 -118 101 -18 14
-38 30 -44 35 -6 6 -69 57 -141 115 -71 57 -137 109 -145 117 -16 14 -73 60
-134 108 -22 17 -44 35 -50 40 -6 6 -56 47 -111 90 -55 44 -102 82 -105 85 -3
3 -27 23 -55 45 -27 22 -57 45 -65 52 -8 7 -71 58 -140 113 -69 56 -135 110
-146 121 -22 19 -34 24 -34 13z"/>
</g>
</svg>
