<svg width="172" height="50" viewBox="0 0 172 50" fill="none" xmlns="http://www.w3.org/2000/svg">
<path d="M31.5016 19.5093L33.2801 25.3783L28.7449 23.7777L31.1459 27.2457L28.0335 35.16L15.4508 22.5327L17.6294 30.1755L14.0724 27.4235L4.64652 31.6919L9.09269 31.2473L0.902344 34.3906C1.16363 34.5399 1.46584 34.6257 1.78825 34.6257H14.8386V47.676C14.8386 48.6637 15.6392 49.4644 16.6269 49.4644H32.8371C33.8247 49.4644 34.6254 48.6637 34.6254 47.676V34.6257H47.6758C48.3084 34.6257 48.8639 34.2968 49.1818 33.8011L31.5016 19.5093Z" fill="#141E39"/>
<path d="M31.6199 11.1263C31.2203 12.9465 29.8883 12.9909 28.7784 13.5237C27.6685 14.0564 27.491 15.6548 27.491 15.6548C26.7806 12.8578 30.5099 9.92757 30.5099 9.92757C27.9349 10.7267 27.2246 13.1685 27.2246 13.1685C27.2246 13.1685 27.0515 10.8598 28.1125 9.79436C29.7966 8.10309 32.9962 8.55125 32.9962 8.55125C32.3302 8.77323 32.0195 9.30597 31.6199 11.1263ZM26.3613 11.3931C26.3613 11.3931 25.1436 7.20747 20.7298 5.83768C20.7298 5.83768 27.1223 10.8603 25.9046 15.6548C25.9046 15.6548 25.6002 12.9151 23.6977 12.0018C21.7952 11.0887 19.5121 11.0125 18.8272 7.89237C18.1423 4.7722 17.6096 3.85903 16.4681 3.47852C16.4681 3.47852 21.9525 2.71036 24.8392 5.60933C26.658 7.43575 26.3613 11.3931 26.3613 11.3931ZM47.6759 14.8387H34.6255V1.78833C34.6255 0.800676 33.8248 -2.74195e-05 32.8372 -2.74195e-05H16.6271C15.6394 -2.74195e-05 14.8387 0.800676 14.8387 1.78833V14.8387H1.78836C0.800704 14.8387 0 15.6394 0 16.627V31.7209L15.0507 19.7759L19.6748 23.6886L30.9682 15.6548L49.4642 31.2267V16.627C49.4642 15.6394 48.6635 14.8387 47.6759 14.8387Z" fill="#377E23"/>
<path d="M62.8934 12.193C63.2259 11.8541 63.6288 11.595 64.1024 11.4157C64.5754 11.2367 65.1002 11.1471 65.6759 11.1471C66.3282 11.1471 66.9199 11.2719 67.4508 11.5213C67.9815 11.7708 68.4775 12.145 68.9381 12.6439L71.3558 10.4563C70.7035 9.66318 69.8783 9.0554 68.8805 8.63327C67.8825 8.21105 66.7504 8.0001 65.484 8.0001C64.3965 8.0001 63.3952 8.16973 62.4807 8.50853C61.566 8.84764 60.7759 9.33067 60.1108 9.95731C59.4456 10.5843 58.9275 11.3231 58.5566 12.1738C58.1854 13.0246 58 13.9617 58 14.985C58 16.0086 58.1854 16.9456 58.5566 17.7963C58.9275 18.6472 59.4423 19.386 60.1013 20.0126C60.7601 20.6396 61.5436 21.1227 62.4521 21.4614C63.3601 21.8002 64.3451 21.97 65.4072 21.97C66.3793 21.97 67.3708 21.8226 68.3815 21.5286C69.392 21.2344 70.2813 20.8123 71.0489 20.2621V14.6971H67.6907V18.3815C67.556 18.444 67.4217 18.4984 67.2878 18.5446C66.7504 18.7302 66.2004 18.8228 65.6375 18.8228C65.0743 18.8228 64.5595 18.7302 64.0926 18.5446C63.6256 18.3593 63.2259 18.097 62.8934 17.7579C62.5605 17.419 62.3015 17.0127 62.1161 16.5393C61.9307 16.0662 61.8379 15.548 61.8379 14.985C61.8379 14.3967 61.9307 13.8689 62.1161 13.4018C62.3015 12.935 62.5605 12.5321 62.8934 12.193Z" fill="#141E39"/>
<path d="M77.9025 16.2898L79.6263 11.9947L81.35 16.2898H77.9025ZM77.784 8.26854L71.8545 21.7012H75.7309L76.7782 19.0914H82.4743L83.5217 21.7012H87.4748L81.5259 8.26854H77.784Z" fill="#141E39"/>
<path d="M96.2346 11.7803C96.6246 12.1257 96.8199 12.612 96.8199 13.2386C96.8199 13.8528 96.6246 14.3324 96.2346 14.6779C95.8441 15.0232 95.2527 15.196 94.4595 15.196H92.3487V11.2622H94.4595C95.2527 11.2622 95.8441 11.4348 96.2346 11.7803ZM99.9286 15.858C100.415 15.1225 100.658 14.2495 100.658 13.2386C100.658 12.2153 100.415 11.3294 99.9286 10.5809C99.4422 9.83251 98.7546 9.26024 97.8656 8.8635C96.9763 8.46707 95.9179 8.26854 94.6899 8.26854H88.5493V21.7012H92.3487V18.1319H94.4228L96.8583 21.7012H100.926L98.0235 17.4714C98.8353 17.0854 99.4718 16.549 99.9286 15.858Z" fill="#141E39"/>
<path d="M102.749 21.7012H106.549V8.26855H102.749V21.7012Z" fill="#141E39"/>
<path d="M117.688 18.6213C117.349 18.8452 116.853 18.9571 116.201 18.9571H113.015V16.2322H116.201C116.853 16.2322 117.349 16.3442 117.688 16.568C118.027 16.7919 118.197 17.1342 118.197 17.5947C118.197 18.0552 118.027 18.3976 117.688 18.6213ZM115.625 11.0127C116.265 11.0127 116.744 11.1183 117.065 11.3294C117.384 11.5403 117.544 11.8636 117.544 12.2983C117.544 12.7333 117.384 13.0596 117.065 13.277C116.744 13.4948 116.265 13.6033 115.625 13.6033H113.015V11.0127H115.625ZM119.809 14.7834C119.728 14.7506 119.646 14.7202 119.563 14.6912C120.096 14.4062 120.521 14.0405 120.835 13.5937C121.2 13.0755 121.382 12.4711 121.382 11.7803C121.382 10.7314 120.947 9.88385 120.077 9.23764C119.207 8.59181 117.89 8.26854 116.124 8.26854H109.254V21.7012H116.508C118.312 21.7012 119.684 21.3783 120.624 20.7321C121.564 20.0862 122.035 19.1812 122.035 18.0167C122.035 17.2366 121.839 16.5746 121.449 16.0307C121.059 15.4871 120.512 15.0712 119.809 14.7834Z" fill="#141E39"/>
<path d="M128.447 16.2898L130.171 11.9947L131.894 16.2898H128.447ZM128.328 8.26854L122.399 21.7012H126.275L127.323 19.0914H133.019L134.066 21.7012H138.019L132.07 8.26854H128.328Z" fill="#141E39"/>
<path d="M142.893 8.26854H139.094V21.7012H149.303V18.6885H142.893V8.26854Z" fill="#141E39"/>
<path d="M160.336 16.971C160.016 17.5275 159.571 17.9497 159.002 18.2375C158.433 18.5254 157.765 18.6693 156.997 18.6693H154.598V11.3006H156.997C157.765 11.3006 158.433 11.4444 159.002 11.7323C159.571 12.0202 160.016 12.4393 160.336 12.9893C160.656 13.5393 160.816 14.2047 160.816 14.9849C160.816 15.7525 160.656 16.4145 160.336 16.971ZM161.065 9.09371C159.939 8.54389 158.634 8.26862 157.151 8.26862H150.799V21.7012H157.151C158.634 21.7012 159.939 21.4263 161.065 20.8761C162.191 20.3262 163.07 19.5491 163.704 18.5446C164.337 17.5404 164.654 16.3539 164.654 14.9849C164.654 13.6033 164.337 12.4135 163.704 11.4156C163.07 10.4178 162.191 9.64393 161.065 9.09371Z" fill="#141E39"/>
<path d="M166.649 21.7012H170.448V8.26855H166.649V21.7012Z" fill="#141E39"/>
<path d="M63.6048 29.0012C63.3708 29.2082 63.0164 29.3117 62.5412 29.3117H61.2765V26.9546H62.5412C63.0164 26.9546 63.3708 27.0581 63.6048 27.265C63.8386 27.472 63.9554 27.7635 63.9554 28.1389C63.9554 28.5068 63.8386 28.7943 63.6048 29.0012ZM64.5821 25.5175C64.0493 25.2799 63.4151 25.161 62.6793 25.161H59V33.2095H61.2765V31.1054H62.6793C63.4151 31.1054 64.0493 30.9846 64.5821 30.7432C65.1148 30.5017 65.5267 30.1587 65.8181 29.7141C66.1093 29.2696 66.255 28.7445 66.255 28.1389C66.255 27.5258 66.1093 26.9949 65.8181 26.5464C65.5267 26.098 65.1148 25.7551 64.5821 25.5175Z" fill="#141E39"/>
<path d="M78.7188 28.185H75.6145V25.161H73.3379V33.2095H75.6145V30.0706H78.7188V33.2095H80.9953V25.161H78.7188V28.185Z" fill="#141E39"/>
<path d="M91.2419 29.9671L92.2747 27.3937L93.3074 29.9671H91.2419ZM91.1708 25.161L87.6182 33.2095H89.9407L90.5682 31.6458H93.9812L94.6087 33.2095H96.9773L93.413 25.161H91.1708Z" fill="#141E39"/>
<path d="M108.205 27.2651C108.438 27.4721 108.555 27.7635 108.555 28.139C108.555 28.5069 108.438 28.7944 108.205 29.0013C107.971 29.2083 107.616 29.3117 107.141 29.3117H105.876V26.9547H107.141C107.616 26.9547 107.971 27.0581 108.205 27.2651ZM110.418 29.7084C110.709 29.2677 110.855 28.7446 110.855 28.139C110.855 27.5259 110.709 26.9949 110.418 26.5465C110.126 26.0981 109.715 25.7551 109.182 25.5175C108.649 25.2799 108.015 25.1611 107.279 25.1611H103.6V33.2095H105.876V31.0709H107.119L108.578 33.2095H111.016L109.276 30.6752C109.763 30.4439 110.144 30.1225 110.418 29.7084Z" fill="#141E39"/>
<path d="M125.549 25.161L122.794 29.8112L119.961 25.161H118.087V33.2095H120.191V29.0586L122.249 32.4161H123.261L125.333 28.9392L125.353 33.2095H127.446L127.423 25.161H125.549Z" fill="#141E39"/>
<path d="M137.692 29.9671L138.725 27.3937L139.758 29.9671H137.692ZM137.621 25.161L134.068 33.2095H136.391L137.018 31.6458H140.431L141.059 33.2095H143.427L139.863 25.161H137.621Z" fill="#141E39"/>
<path d="M152.448 27.5122C152.643 27.3092 152.879 27.1539 153.155 27.0465C153.431 26.9393 153.733 26.8856 154.063 26.8856C154.446 26.8856 154.793 26.966 155.104 27.127C155.414 27.288 155.7 27.5219 155.96 27.8284L157.409 26.5176C157.018 26.0272 156.529 25.6516 155.943 25.3909C155.357 25.1304 154.692 24.9999 153.948 24.9999C153.312 24.9999 152.724 25.1016 152.183 25.3046C151.643 25.5078 151.175 25.7973 150.781 26.1727C150.386 26.5483 150.077 26.9911 149.855 27.5007C149.633 28.0106 149.521 28.572 149.521 29.1852C149.521 29.7985 149.633 30.3599 149.855 30.8695C150.077 31.3794 150.386 31.822 150.781 32.1975C151.175 32.5732 151.643 32.8626 152.183 33.0657C152.724 33.2687 153.312 33.3704 153.948 33.3704C154.692 33.3704 155.357 33.2382 155.943 32.9737C156.529 32.7092 157.018 32.3355 157.409 31.8527L155.96 30.5418C155.7 30.8486 155.414 31.0823 155.104 31.2433C154.793 31.4041 154.446 31.4847 154.063 31.4847C153.733 31.4847 153.431 31.4312 153.155 31.3237C152.879 31.2165 152.643 31.0613 152.448 30.858C152.252 30.655 152.099 30.4117 151.988 30.128C151.877 29.8444 151.821 29.53 151.821 29.1852C151.821 28.8402 151.877 28.5259 151.988 28.2423C152.099 27.9588 152.252 27.7153 152.448 27.5122Z" fill="#141E39"/>
<path d="M171.758 25.161H169.55L167.638 28.3548L165.733 25.161H163.33L166.4 30.2905V33.2095H168.677V30.3263L171.758 25.161Z" fill="#141E39"/>
<path d="M74.2973 44L73.7101 43.3831L73.5838 43.2345L72.2015 41.711C72.0479 41.5375 71.9116 41.3765 71.7927 41.2279C71.6738 41.0792 71.5747 40.9405 71.4954 40.8117C71.4161 40.6829 71.3567 40.559 71.317 40.4401C71.2774 40.3212 71.2576 40.1998 71.2576 40.0759C71.2576 39.8183 71.322 39.5904 71.4508 39.3922C71.5846 39.189 71.7654 39.0305 71.9934 38.9165C72.2262 38.8026 72.4913 38.7456 72.7886 38.7456C73.0214 38.7456 73.2345 38.7852 73.4277 38.8645C73.621 38.9438 73.7869 39.0553 73.9257 39.1989C74.0644 39.3426 74.166 39.5086 74.2304 39.6969L73.7919 39.9793C73.6879 39.7217 73.5541 39.5383 73.3906 39.4293C73.232 39.3203 73.0314 39.2658 72.7886 39.2658C72.5953 39.2658 72.4294 39.298 72.2906 39.3624C72.1519 39.4219 72.0454 39.5086 71.9711 39.6226C71.8967 39.7365 71.8596 39.8802 71.8596 40.0536C71.8596 40.1725 71.8893 40.2964 71.9488 40.4252C72.0082 40.5491 72.0825 40.6754 72.1717 40.8042C72.2659 40.9281 72.3625 41.0446 72.4616 41.1536C72.5607 41.2626 72.6499 41.3616 72.7291 41.4508L73.9703 42.8332L74.1561 43.0338L75.0479 44H74.2973ZM72.3204 44.0743C71.9488 44.0743 71.6168 44.0025 71.3245 43.8588C71.0322 43.7102 70.8018 43.5095 70.6333 43.2568C70.4648 43.0041 70.3806 42.7192 70.3806 42.4021C70.3806 42.0256 70.4871 41.6936 70.7002 41.4062C70.9182 41.1189 71.2353 40.8984 71.6515 40.7448L72.0082 41.1684C71.6713 41.2526 71.4137 41.3939 71.2353 41.592C71.0619 41.7902 70.9752 42.038 70.9752 42.3352C70.9752 42.5681 71.0371 42.7762 71.161 42.9595C71.2848 43.1379 71.4558 43.2791 71.6738 43.3831C71.8918 43.4872 72.1395 43.5392 72.417 43.5392C72.6647 43.5392 72.8902 43.4921 73.0933 43.398C73.3014 43.3039 73.4847 43.1701 73.6433 42.9967C73.8068 42.8233 73.9381 42.6152 74.0372 42.3724C74.1412 42.1296 74.2155 41.8571 74.2601 41.5549H74.8101C74.7704 41.8571 74.7011 42.1371 74.602 42.3947C74.5029 42.6523 74.379 42.8852 74.2304 43.0933C74.0867 43.3014 73.9182 43.4798 73.725 43.6284C73.5318 43.7721 73.3163 43.8836 73.0784 43.9628C72.8456 44.0372 72.5929 44.0743 72.3204 44.0743ZM81.0904 44.0743C80.7188 44.0743 80.377 44.0099 80.0648 43.8811C79.7527 43.7473 79.4827 43.5615 79.2547 43.3237C79.0268 43.0809 78.8485 42.796 78.7196 42.469C78.5958 42.142 78.5338 41.7853 78.5338 41.3988C78.5338 41.0173 78.5958 40.668 78.7196 40.3509C78.8485 40.0288 79.0293 39.7489 79.2622 39.5111C79.495 39.2683 79.7651 39.0825 80.0723 38.9537C80.3795 38.8249 80.7164 38.7605 81.083 38.7605C81.3258 38.7605 81.5661 38.8001 81.8039 38.8794C82.0417 38.9537 82.2597 39.0577 82.4579 39.1915C82.6611 39.3253 82.8271 39.4789 82.9559 39.6523L82.5545 40.0685C82.4307 39.9198 82.287 39.791 82.1235 39.682C81.9649 39.573 81.7965 39.4888 81.6181 39.4293C81.4398 39.3699 81.2614 39.3402 81.083 39.3402C80.8056 39.3402 80.5454 39.3922 80.3027 39.4962C80.0648 39.5953 79.8592 39.7365 79.6858 39.9198C79.5124 40.1032 79.3761 40.3212 79.277 40.5739C79.1829 40.8265 79.1358 41.1015 79.1358 41.3988C79.1358 41.706 79.1829 41.9884 79.277 42.2461C79.3761 42.5037 79.5149 42.7267 79.6932 42.9149C79.8766 43.0983 80.0896 43.2419 80.3324 43.346C80.5801 43.4451 80.8551 43.4946 81.1573 43.4946C81.3357 43.4946 81.5141 43.4699 81.6924 43.4203C81.8708 43.3658 82.0343 43.2915 82.1829 43.1973C82.3316 43.1032 82.4579 42.9967 82.562 42.8778L82.8593 43.3608C82.7453 43.4996 82.5917 43.6234 82.3985 43.7324C82.2102 43.8365 82.0021 43.9207 81.7742 43.9851C81.5463 44.0446 81.3184 44.0743 81.0904 44.0743ZM86.477 44.0743C86.1104 44.0743 85.771 44.0099 85.4588 43.8811C85.1516 43.7473 84.8816 43.5615 84.6487 43.3237C84.4208 43.0859 84.2425 42.8059 84.1136 42.4839C83.9898 42.1569 83.9278 41.8001 83.9278 41.4137C83.9278 41.0272 83.9898 40.673 84.1136 40.3509C84.2425 40.0239 84.4208 39.7415 84.6487 39.5037C84.8816 39.2609 85.1516 39.0751 85.4588 38.9463C85.771 38.8125 86.1104 38.7456 86.477 38.7456C86.8486 38.7456 87.188 38.8125 87.4952 38.9463C87.8073 39.0751 88.0774 39.2609 88.3053 39.5037C88.5381 39.7415 88.7165 40.0239 88.8404 40.3509C88.9692 40.673 89.0336 41.0272 89.0336 41.4137C89.0336 41.7952 88.9692 42.1494 88.8404 42.4764C88.7165 42.7985 88.5381 43.0809 88.3053 43.3237C88.0774 43.5615 87.8073 43.7473 87.4952 43.8811C87.188 44.0099 86.8486 44.0743 86.477 44.0743ZM86.477 43.5021C86.7594 43.5021 87.0195 43.4525 87.2574 43.3534C87.5001 43.2494 87.7082 43.1032 87.8816 42.9149C88.0551 42.7267 88.1888 42.5062 88.283 42.2535C88.3821 41.9958 88.4316 41.7159 88.4316 41.4137C88.4316 41.1065 88.3821 40.8265 88.283 40.5739C88.1888 40.3162 88.0551 40.0933 87.8816 39.905C87.7082 39.7167 87.5001 39.5705 87.2574 39.4665C87.0195 39.3624 86.7594 39.3104 86.477 39.3104C86.1946 39.3104 85.932 39.3624 85.6892 39.4665C85.4514 39.5705 85.2458 39.7167 85.0724 39.905C84.8989 40.0933 84.7652 40.3162 84.671 40.5739C84.5769 40.8265 84.5298 41.1065 84.5298 41.4137C84.5298 41.7159 84.5769 41.9958 84.671 42.2535C84.7652 42.5062 84.8989 42.7267 85.0724 42.9149C85.2458 43.1032 85.4514 43.2494 85.6892 43.3534C85.932 43.4525 86.1946 43.5021 86.477 43.5021ZM90.536 44V38.7976H91.1009L93.1001 42.0454L92.8325 42.038L94.854 38.7976H95.3817V44H94.802V41.6218C94.802 41.1758 94.8094 40.7745 94.8243 40.4178C94.8391 40.0611 94.8664 39.7068 94.906 39.355L95.0101 39.5631L93.1447 42.4913H92.7433L90.9299 39.6003L91.0117 39.355C91.0513 39.687 91.0786 40.0288 91.0934 40.3806C91.1083 40.7275 91.1157 41.1412 91.1157 41.6218V44H90.536ZM97.2872 44V38.7976H99.3459C99.6184 38.7976 99.8636 38.8645 100.082 38.9983C100.3 39.1321 100.473 39.3179 100.602 39.5557C100.731 39.7885 100.795 40.0511 100.795 40.3435C100.795 40.6507 100.731 40.9256 100.602 41.1684C100.473 41.4062 100.3 41.597 100.082 41.7407C99.8636 41.8794 99.6184 41.9488 99.3459 41.9488H97.8669V44H97.2872ZM97.8669 41.3839H99.3756C99.5292 41.3839 99.6655 41.3394 99.7844 41.2502C99.9082 41.156 100.007 41.0322 100.082 40.8786C100.156 40.72 100.193 40.5392 100.193 40.336C100.193 40.1527 100.156 39.9892 100.082 39.8455C100.007 39.6969 99.9082 39.5805 99.7844 39.4962C99.6655 39.407 99.5292 39.3624 99.3756 39.3624H97.8669V41.3839ZM104.43 44.0743C104.063 44.0743 103.724 44.0099 103.412 43.8811C103.105 43.7473 102.834 43.5615 102.602 43.3237C102.374 43.0859 102.195 42.8059 102.067 42.4839C101.943 42.1569 101.881 41.8001 101.881 41.4137C101.881 41.0272 101.943 40.673 102.067 40.3509C102.195 40.0239 102.374 39.7415 102.602 39.5037C102.834 39.2609 103.105 39.0751 103.412 38.9463C103.724 38.8125 104.063 38.7456 104.43 38.7456C104.801 38.7456 105.141 38.8125 105.448 38.9463C105.76 39.0751 106.03 39.2609 106.258 39.5037C106.491 39.7415 106.669 40.0239 106.793 40.3509C106.922 40.673 106.986 41.0272 106.986 41.4137C106.986 41.7952 106.922 42.1494 106.793 42.4764C106.669 42.7985 106.491 43.0809 106.258 43.3237C106.03 43.5615 105.76 43.7473 105.448 43.8811C105.141 44.0099 104.801 44.0743 104.43 44.0743ZM104.43 43.5021C104.712 43.5021 104.972 43.4525 105.21 43.3534C105.453 43.2494 105.661 43.1032 105.835 42.9149C106.008 42.7267 106.142 42.5062 106.236 42.2535C106.335 41.9958 106.384 41.7159 106.384 41.4137C106.384 41.1065 106.335 40.8265 106.236 40.5739C106.142 40.3162 106.008 40.0933 105.835 39.905C105.661 39.7167 105.453 39.5705 105.21 39.4665C104.972 39.3624 104.712 39.3104 104.43 39.3104C104.147 39.3104 103.885 39.3624 103.642 39.4665C103.404 39.5705 103.199 39.7167 103.025 39.905C102.852 40.0933 102.718 40.3162 102.624 40.5739C102.53 40.8265 102.483 41.1065 102.483 41.4137C102.483 41.7159 102.53 41.9958 102.624 42.2535C102.718 42.5062 102.852 42.7267 103.025 42.9149C103.199 43.1032 103.404 43.2494 103.642 43.3534C103.885 43.4525 104.147 43.5021 104.43 43.5021ZM110.488 44.052C110.097 44.052 109.747 43.9653 109.44 43.7919C109.133 43.6135 108.89 43.3708 108.712 43.0636C108.538 42.7514 108.452 42.3996 108.452 42.0082V38.7976H109.031V41.9413C109.031 42.2337 109.096 42.4963 109.225 42.7291C109.353 42.962 109.527 43.1453 109.745 43.2791C109.968 43.4129 110.216 43.4798 110.488 43.4798C110.775 43.4798 111.031 43.4129 111.254 43.2791C111.482 43.1453 111.66 42.962 111.789 42.7291C111.918 42.4963 111.982 42.2337 111.982 41.9413V38.7976H112.539V42.0082C112.539 42.3996 112.45 42.7514 112.272 43.0636C112.098 43.3708 111.856 43.6135 111.543 43.7919C111.236 43.9653 110.884 44.052 110.488 44.052ZM114.413 44V38.7976H114.94L118.344 43.3014L118.24 43.4352C118.225 43.3559 118.213 43.237 118.203 43.0784C118.198 42.9199 118.191 42.7415 118.181 42.5433C118.176 42.3402 118.171 42.1296 118.166 41.9116C118.161 41.6936 118.156 41.4806 118.151 41.2725C118.151 41.0644 118.151 40.8761 118.151 40.7076V38.7976H118.731V44H118.188L114.799 39.5557L114.888 39.3996C114.903 39.5978 114.916 39.7935 114.926 39.9867C114.94 40.18 114.95 40.3658 114.955 40.5441C114.965 40.7225 114.973 40.886 114.978 41.0346C114.982 41.1833 114.985 41.3096 114.985 41.4137C114.99 41.5177 114.992 41.592 114.992 41.6366V44H114.413ZM120.634 44V38.7976H122.596C122.953 38.7976 123.277 38.862 123.57 38.9908C123.867 39.1147 124.125 39.2931 124.343 39.5259C124.561 39.7588 124.729 40.0338 124.848 40.3509C124.967 40.668 125.026 41.0173 125.026 41.3988C125.026 41.7803 124.967 42.1321 124.848 42.4541C124.729 42.7712 124.561 43.0462 124.343 43.2791C124.13 43.507 123.874 43.6854 123.577 43.8142C123.28 43.9381 122.953 44 122.596 44H120.634ZM121.214 43.5392L121.147 43.4352H122.559C122.831 43.4352 123.082 43.3881 123.31 43.294C123.542 43.1949 123.741 43.0561 123.904 42.8778C124.073 42.6944 124.201 42.4789 124.291 42.2312C124.385 41.9835 124.432 41.706 124.432 41.3988C124.432 41.0916 124.385 40.8142 124.291 40.5664C124.201 40.3187 124.073 40.1056 123.904 39.9273C123.736 39.744 123.538 39.6052 123.31 39.5111C123.082 39.412 122.831 39.3624 122.559 39.3624H121.125L121.214 39.2733V43.5392ZM126.175 44V43.45H127.015V39.3476H126.175V38.7976H128.434V39.3476H127.594V43.45H128.434V44H126.175ZM130.094 44V38.7976H130.622L134.025 43.3014L133.921 43.4352C133.906 43.3559 133.894 43.237 133.884 43.0784C133.879 42.9199 133.872 42.7415 133.862 42.5433C133.857 42.3402 133.852 42.1296 133.847 41.9116C133.842 41.6936 133.837 41.4806 133.832 41.2725C133.832 41.0644 133.832 40.8761 133.832 40.7076V38.7976H134.412V44H133.869L130.48 39.5557L130.57 39.3996C130.584 39.5978 130.597 39.7935 130.607 39.9867C130.622 40.18 130.631 40.3658 130.636 40.5441C130.646 40.7225 130.654 40.886 130.659 41.0346C130.664 41.1833 130.666 41.3096 130.666 41.4137C130.671 41.5177 130.674 41.592 130.674 41.6366V44H130.094ZM138.619 44.0743C138.238 44.0743 137.883 44.0074 137.556 43.8737C137.229 43.7399 136.942 43.5541 136.694 43.3163C136.447 43.0784 136.253 42.7985 136.115 42.4764C135.981 42.1494 135.914 41.7952 135.914 41.4137C135.914 41.0322 135.981 40.6804 136.115 40.3583C136.253 40.0313 136.442 39.7489 136.679 39.5111C136.922 39.2733 137.205 39.0899 137.527 38.9611C137.854 38.8273 138.203 38.7605 138.575 38.7605C138.837 38.7605 139.095 38.7976 139.348 38.8719C139.605 38.9463 139.838 39.0503 140.046 39.1841C140.254 39.3179 140.423 39.469 140.551 39.6374L140.165 40.0313C140.026 39.8876 139.87 39.7638 139.697 39.6597C139.523 39.5557 139.34 39.4739 139.147 39.4145C138.959 39.355 138.77 39.3253 138.582 39.3253C138.29 39.3253 138.017 39.3773 137.765 39.4814C137.517 39.5854 137.299 39.7316 137.11 39.9198C136.922 40.1032 136.776 40.3236 136.672 40.5813C136.568 40.834 136.516 41.1114 136.516 41.4137C136.516 41.706 136.568 41.981 136.672 42.2386C136.781 42.4913 136.932 42.7143 137.125 42.9075C137.324 43.0958 137.551 43.2419 137.809 43.346C138.067 43.45 138.344 43.5021 138.641 43.5021C138.874 43.5021 139.092 43.4674 139.295 43.398C139.504 43.3286 139.684 43.232 139.838 43.1082C139.992 42.9793 140.111 42.8307 140.195 42.6622C140.279 42.4938 140.321 42.3129 140.321 42.1197V41.8596L140.44 42.0082H138.612V41.436H140.901C140.906 41.4756 140.911 41.5227 140.916 41.5772C140.921 41.6267 140.923 41.6787 140.923 41.7332C140.928 41.7828 140.931 41.8299 140.931 41.8745C140.931 42.1965 140.871 42.4938 140.752 42.7663C140.633 43.0338 140.467 43.2667 140.254 43.4649C140.046 43.6581 139.803 43.8092 139.526 43.9182C139.248 44.0223 138.946 44.0743 138.619 44.0743ZM144.817 44V38.7976H145.397V43.4352H147.894V44H144.817ZM148.818 44L150.81 38.7976H151.472L153.449 44H152.817L151.546 40.6259C151.511 40.5317 151.472 40.4227 151.427 40.2989C151.387 40.1701 151.343 40.0388 151.293 39.905C151.249 39.7663 151.204 39.6325 151.16 39.5037C151.12 39.3748 151.083 39.2609 151.048 39.1618H151.197C151.157 39.2856 151.115 39.412 151.07 39.5408C151.031 39.6647 150.989 39.791 150.944 39.9198C150.899 40.0437 150.855 40.1676 150.81 40.2914C150.766 40.4153 150.721 40.5392 150.676 40.663L149.413 44H148.818ZM149.666 42.5656L149.881 42.0008H152.341L152.579 42.5656H149.666ZM154.77 44V38.7976H156.881C157.183 38.7976 157.443 38.8521 157.661 38.9611C157.884 39.0652 158.055 39.2163 158.174 39.4145C158.293 39.6077 158.353 39.8381 158.353 40.1056C158.353 40.393 158.271 40.6407 158.107 40.8488C157.944 41.052 157.721 41.1932 157.438 41.2725L157.424 41.1313C157.666 41.1758 157.877 41.2626 158.055 41.3914C158.234 41.5152 158.372 41.6688 158.472 41.8522C158.576 42.0355 158.628 42.2411 158.628 42.469C158.628 42.7019 158.588 42.9125 158.509 43.1007C158.429 43.289 158.315 43.45 158.167 43.5838C158.023 43.7176 157.847 43.8216 157.639 43.896C157.436 43.9653 157.208 44 156.955 44H154.77ZM155.35 43.4352H156.911C157.134 43.4352 157.327 43.398 157.49 43.3237C157.659 43.2444 157.788 43.1329 157.877 42.9893C157.971 42.8456 158.018 42.6796 158.018 42.4913C158.018 42.3129 157.969 42.1569 157.87 42.0231C157.775 41.8893 157.642 41.7853 157.468 41.711C157.3 41.6366 157.102 41.5995 156.874 41.5995H155.35V43.4352ZM155.35 41.0346H156.836C157.015 41.0346 157.173 41 157.312 40.9306C157.451 40.8563 157.56 40.7572 157.639 40.6333C157.718 40.5045 157.758 40.3608 157.758 40.2023C157.758 39.9496 157.671 39.7464 157.498 39.5928C157.329 39.4392 157.092 39.3624 156.784 39.3624H155.35V41.0346Z" fill="#141E39"/>
<rect x="59" y="41" width="7" height="1" fill="#D9D9D9"/>
<rect x="163" y="41" width="7" height="1" fill="#D9D9D9"/>
</svg>
