<svg width="135" height="82" viewBox="0 0 135 82" fill="none" xmlns="http://www.w3.org/2000/svg">
<path d="M70.6482 19.8186C70.6909 23.0874 67.9721 26.0077 64.4643 26.0053C61.004 26.003 58.2043 23.2238 58.2079 19.7827C58.2116 16.368 61.0197 13.5522 64.4362 13.568C68.1558 13.5852 70.7269 16.6515 70.6482 19.8186Z" fill="#393939"/>
<path d="M58.0239 50.5362C57.3837 50.0899 56.7397 49.6488 56.1054 49.1945C55.8659 49.0229 55.6157 48.9019 55.3282 48.828C52.7024 48.1533 50.0367 47.6955 47.359 47.2819C44.6254 46.8596 41.8954 46.4022 39.1805 45.8743C36.9928 45.449 34.812 44.9621 32.6602 44.3835C29.6102 43.5635 26.6112 42.5831 23.7514 41.2071C21.3877 40.07 19.1888 38.6897 17.1835 37.0035C16.0503 36.0505 15.0402 34.9742 14.0956 33.8336C12.4746 31.8763 11.0313 29.7965 9.76518 27.5942C8.59409 25.5572 7.58059 23.4424 6.68523 21.2706C5.24161 17.7692 4.07461 14.1749 3.14057 10.5071C2.42935 7.71429 1.77349 4.90728 1.10286 2.10421C1.03973 1.84053 1.04654 1.55997 1.02305 1.28703C0.992066 0.928223 0.963191 0.569202 0.929619 0.164562C1.02448 0.229599 1.1111 0.26746 1.16824 0.331608C1.57261 0.785416 2.09751 1.06326 2.62214 1.34233C4.25915 2.21297 5.99349 2.82987 7.80906 3.17254C10.3416 3.65052 12.8863 4.06572 15.4287 4.49058C18.957 5.08018 22.496 5.60992 26.015 6.25018C28.2217 6.65169 30.4145 7.15255 32.5877 7.70994C35.5925 8.48067 38.5372 9.45325 41.3692 10.734C42.881 11.4177 44.2847 12.2838 45.5222 13.3985C46.0813 13.902 46.6083 14.4413 47.1661 14.9463C48.1894 15.8727 49.1048 16.898 49.9347 17.9958C50.554 18.815 51.1469 19.6577 51.699 20.5234C52.337 21.5235 52.9387 22.5484 53.5157 23.585C53.9589 24.3813 54.3462 25.209 54.7457 26.029C55.1707 26.901 55.6014 27.7712 55.9926 28.6584C56.6232 30.0892 57.255 31.521 57.8258 32.9761C58.2164 33.9719 58.5094 35.0064 58.8368 36.0267C59.2393 37.2815 59.6269 38.5412 60.0338 39.7946C60.1181 40.0544 60.2608 40.295 60.3726 40.5461C60.5235 40.8848 60.6706 41.2252 60.7551 41.6061C60.6764 41.5331 60.5944 41.4632 60.5194 41.3866C57.7306 38.5429 54.7363 35.9582 51.3159 33.8821C48.8492 32.3849 46.2072 31.3476 43.4108 30.7012C41.3516 30.2252 39.2785 29.8046 37.2021 29.4098C36.1347 29.2069 35.1567 28.7817 34.1678 28.3755C33.2441 27.9961 32.3242 27.6033 31.4249 27.1702C30.3955 26.6745 29.3821 26.1438 28.3772 25.5997C26.859 24.7779 25.444 23.7895 24.0688 22.7548C23.0182 21.9644 22.0385 21.0773 21.0501 20.2073C20.2572 19.5093 19.4933 18.7778 18.7272 18.0498C18.4341 17.7713 18.1718 17.4605 17.893 17.1667C17.8376 17.1084 17.771 17.0609 17.6366 17.05C17.688 17.1756 17.7287 17.3068 17.7922 17.4259C18.8725 19.4491 20.1091 21.3713 21.5028 23.1937C22.5872 24.6115 23.7655 25.9481 25.0309 27.2026C26.8976 29.0531 28.9251 30.7104 31.155 32.1126C32.8403 33.1721 34.5992 34.0857 36.4651 34.7812C37.0055 34.9827 37.5732 35.1142 38.1333 35.2588C38.9046 35.458 39.6779 35.6511 40.4551 35.8252C41.4089 36.0389 42.298 36.4281 43.1957 36.7956C45.7008 37.8209 48.0558 39.1141 50.2216 40.7435C52.0961 42.1537 53.7584 43.7785 55.1624 45.6603C55.9262 46.6839 56.5817 47.7754 57.1619 48.9134C57.2928 49.1702 57.4665 49.405 57.617 49.6521C57.7809 49.921 57.9406 50.1924 58.1022 50.4629C58.0761 50.4873 58.05 50.5118 58.0239 50.5362Z" fill="#73C22C"/>
<path d="M71.09 50.701C71.7301 50.2547 72.3741 49.8137 73.0085 49.3593C73.248 49.1878 73.4982 49.0668 73.7857 48.9929C76.4115 48.3181 79.0772 47.8603 81.7548 47.4468C84.4885 47.0245 87.2185 46.567 89.9334 46.0392C92.1211 45.6138 94.3019 45.127 96.4537 44.5484C99.5036 43.7283 102.503 42.7479 105.362 41.372C107.726 40.2348 109.925 38.8546 111.93 37.1683C113.064 36.2154 114.074 35.139 115.018 33.9985C116.639 32.0411 118.083 29.9613 119.349 27.759C120.52 25.722 121.533 23.6073 122.429 21.4355C123.872 17.934 125.039 14.3397 125.973 10.672C126.685 7.87914 127.34 5.07212 128.011 2.26905C128.074 2.00537 128.067 1.72481 128.091 1.45187C128.122 1.09306 128.151 0.734043 128.184 0.329403C128.089 0.39444 128.003 0.432301 127.946 0.496449C127.541 0.950256 127.016 1.22817 126.492 1.50717C124.855 2.37781 123.12 2.99471 121.305 3.33738C118.772 3.81536 116.228 4.23056 113.685 4.65542C110.157 5.24502 106.618 5.77476 103.099 6.41502C100.892 6.81653 98.6993 7.31739 96.5262 7.87478C93.5213 8.64552 90.5766 9.6181 87.7446 10.8988C86.2328 11.5825 84.8291 12.4487 83.5916 13.5633C83.0326 14.0669 82.5056 14.6061 81.9477 15.1111C80.9244 16.0375 80.0091 17.0629 79.1792 18.1606C78.5599 18.9799 77.967 19.8225 77.4148 20.6882C76.7769 21.6883 76.1751 22.7132 75.5981 23.7499C75.1549 24.5462 74.7677 25.3739 74.3681 26.1938C73.9432 27.0659 73.5125 27.936 73.1213 28.8233C72.4906 30.254 71.8589 31.6858 71.2881 33.1409C70.8974 34.1368 70.6045 35.1713 70.2771 36.1915C69.8745 37.4464 69.487 38.7061 69.0801 39.9595C68.9958 40.2193 68.8531 40.4598 68.7413 40.7109C68.5904 41.0497 68.4433 41.39 68.3588 41.7709C68.4375 41.6979 68.5194 41.628 68.5945 41.5515C71.3832 38.7078 74.3776 36.123 77.798 34.047C80.2646 32.5498 82.9067 31.5125 85.7031 30.866C87.7623 30.39 89.8353 29.9694 91.9118 29.5747C92.9792 29.3717 93.9572 28.9465 94.9461 28.5403C95.8697 28.161 96.7897 27.7681 97.689 27.3351C98.7183 26.8394 99.7318 26.3086 100.737 25.7646C102.255 24.9428 103.67 23.9543 105.045 22.9197C106.096 22.1292 107.075 21.2422 108.064 20.3721C108.857 19.6741 109.621 18.9426 110.387 18.2146C110.68 17.9361 110.942 17.6253 111.221 17.3315C111.276 17.2732 111.343 17.2257 111.477 17.2148C111.426 17.3405 111.385 17.4717 111.322 17.5908C110.241 19.614 109.005 21.5361 107.611 23.3585C106.527 24.7763 105.348 26.113 104.083 27.3674C102.216 29.2179 100.189 30.8752 97.9588 32.2774C96.2736 33.337 94.5146 34.2506 92.6488 34.9461C92.1084 35.1475 91.5406 35.279 90.9805 35.4236C90.2092 35.6228 89.436 35.8159 88.6588 35.99C87.705 36.2037 86.8159 36.593 85.9182 36.9604C83.413 37.9858 81.058 39.279 78.8922 40.9084C77.0178 42.3185 75.3555 43.9433 73.9514 45.8251C73.1877 46.8487 72.5321 47.9402 71.952 49.0782C71.821 49.335 71.6474 49.5698 71.4968 49.8169C71.333 50.0858 71.1732 50.3573 71.0116 50.6276C71.0378 50.6522 71.0639 50.6766 71.09 50.701Z" fill="#73C22C"/>
<path d="M6.33694 60.4545H2.09134V57.3543H14.4727V60.4545H10.2469V71.1772H6.33694V60.4545Z" fill="#100F0D"/>
<path d="M27.0318 68.1559V71.1771H15.9339V57.3542H26.775V60.3755H19.8043V62.7057H25.9457V65.6283H19.8043V68.1559H27.0318Z" fill="#100F0D"/>
<path d="M35.2859 60.4348H33.1138V64.4829H35.2859C36.9052 64.4829 37.7148 63.7326 37.7148 62.4687C37.7148 61.1852 36.9052 60.4348 35.2859 60.4348ZM35.2464 67.5043H33.1138V71.1772H29.2039V57.3543H35.5229C39.2946 57.3543 41.6642 59.3093 41.6642 62.4687C41.6642 64.5026 40.6769 66.0034 38.9589 66.8328L41.9407 71.1772H37.7543L35.2464 67.5043Z" fill="#100F0D"/>
<path d="M49.8986 60.4348H47.7264V64.4829H49.8986C51.5178 64.4829 52.3274 63.7326 52.3274 62.4687C52.3274 61.1852 51.5178 60.4348 49.8986 60.4348ZM49.8591 67.5043H47.7264V71.1772H43.8165V57.3543H50.1355C53.9072 57.3543 56.2769 59.3093 56.2769 62.4687C56.2769 64.5026 55.2895 66.0034 53.5715 66.8328L56.5533 71.1772H52.3669L49.8591 67.5043Z" fill="#100F0D"/>
<path d="M66.5451 65.6085L64.7678 61.1852L62.9906 65.6085H66.5451ZM67.6904 68.4916H61.8453L60.7592 71.1771H56.7703L62.8721 57.3542H66.7228L72.8444 71.1771H68.7765L67.6904 68.4916Z" fill="#100F0D"/>
<path d="M87.1016 57.3542V71.1771H83.8829L77.781 63.8115V71.1771H73.9501V57.3542H77.1688L83.2707 64.7198V57.3542H87.1016Z" fill="#100F0D"/>
<path d="M100.569 64.2657C100.569 61.8763 98.9301 60.3163 96.8369 60.3163C94.7437 60.3163 93.1047 61.8763 93.1047 64.2657C93.1047 66.6551 94.7437 68.2151 96.8369 68.2151C98.9301 68.2151 100.569 66.6551 100.569 64.2657ZM89.1553 64.2657C89.1553 60.1188 92.4135 57.0778 96.8369 57.0778C101.26 57.0778 104.518 60.1188 104.518 64.2657C104.518 68.4126 101.26 71.4536 96.8369 71.4536C92.4135 71.4536 89.1553 68.4126 89.1553 64.2657Z" fill="#100F0D"/>
<path d="M120.119 57.3542L114.195 71.1771H110.344L104.44 57.3542H108.665L112.417 66.3588L116.248 57.3542H120.119Z" fill="#100F0D"/>
<path d="M128.571 65.6085L126.793 61.1852L125.016 65.6085H128.571ZM129.716 68.4916H123.871L122.785 71.1771H118.796L124.898 57.3542H128.748L134.87 71.1771H130.802L129.716 68.4916Z" fill="#100F0D"/>
<path d="M26.4384 81.306L26.4198 77.853L24.7445 80.6638H23.9255L22.2595 77.9461V81.306H20.5563V74.791H22.0733L24.3629 78.5511L26.5967 74.791H28.1137L28.1324 81.306H26.4384Z" fill="#110F0D"/>
<path d="M35.8205 79.882V81.306H30.5898V74.7909H35.6995V76.2149H32.4141V77.3132H35.3086V78.6907H32.4141V79.882H35.8205Z" fill="#110F0D"/>
<path d="M41.0049 79.8354C42.1125 79.8354 42.8571 79.1747 42.8571 78.0485C42.8571 76.9223 42.1125 76.2615 41.0049 76.2615H39.8415V79.8354H41.0049ZM37.9987 74.791H41.0794C43.2387 74.791 44.7185 76.0474 44.7185 78.0485C44.7185 80.0495 43.2387 81.306 41.0794 81.306H37.9987V74.791Z" fill="#110F0D"/>
<path d="M46.8408 74.791H48.6837V81.306H46.8408V74.791Z" fill="#110F0D"/>
<path d="M50.8152 78.0484C50.8152 76.066 52.3323 74.6606 54.3984 74.6606C55.5991 74.6606 56.567 75.0981 57.1999 75.8892L56.0272 76.9502C55.6177 76.4569 55.1151 76.187 54.4915 76.187C53.4212 76.187 52.6766 76.9316 52.6766 78.0484C52.6766 79.1653 53.4212 79.9099 54.4915 79.9099C55.1151 79.9099 55.6177 79.64 56.0272 79.1467L57.1999 80.2078C56.567 80.9989 55.5991 81.4363 54.3984 81.4363C52.3323 81.4363 50.8152 80.0308 50.8152 78.0484Z" fill="#110F0D"/>
<path d="M62.8869 78.6814L62.0493 76.5966L61.2117 78.6814H62.8869ZM63.4268 80.0402H60.6718L60.1599 81.306H58.2799L61.1558 74.791H62.9707L65.856 81.306H63.9387L63.4268 80.0402Z" fill="#110F0D"/>
<path d="M67.5316 74.791H69.3745V79.8448H72.483V81.306H67.5316V74.791Z" fill="#110F0D"/>
<path d="M77.8907 78.0484C77.8907 76.066 79.4078 74.6606 81.474 74.6606C82.6746 74.6606 83.6426 75.0981 84.2754 75.8892L83.1028 76.9502C82.6932 76.4569 82.1907 76.187 81.5671 76.187C80.4968 76.187 79.7521 76.9316 79.7521 78.0484C79.7521 79.1653 80.4968 79.9099 81.5671 79.9099C82.1907 79.9099 82.6932 79.64 83.1028 79.1467L84.2754 80.2078C83.6426 80.9989 82.6746 81.4363 81.474 81.4363C79.4078 81.4363 77.8907 80.0308 77.8907 78.0484Z" fill="#110F0D"/>
<path d="M86.2489 74.791H88.0917V79.8448H91.2004V81.306H86.2489V74.791Z" fill="#110F0D"/>
<path d="M93.0805 74.791H94.9234V81.306H93.0805V74.791Z" fill="#110F0D"/>
<path d="M103.589 74.791V81.306H102.071L99.1955 77.8344V81.306H97.3899V74.791H98.9069L101.783 78.2626V74.791H103.589Z" fill="#110F0D"/>
<path d="M106.046 74.791H107.889V81.306H106.046V74.791Z" fill="#110F0D"/>
<path d="M110.02 78.0484C110.02 76.066 111.537 74.6606 113.604 74.6606C114.804 74.6606 115.772 75.0981 116.405 75.8892L115.232 76.9502C114.823 76.4569 114.32 76.187 113.697 76.187C112.626 76.187 111.882 76.9316 111.882 78.0484C111.882 79.1653 112.626 79.9099 113.697 79.9099C114.32 79.9099 114.823 79.64 115.232 79.1467L116.405 80.2078C115.772 80.9989 114.804 81.4363 113.604 81.4363C111.537 81.4363 110.02 80.0308 110.02 78.0484Z" fill="#110F0D"/>
</svg>
